
                <svg id="trend-chart" width="660" height="400" title="Stack Overflow Trends Chart" version="1.1" xmlns="http://www.w3.org/2000/svg"><g></g><g class="chart-area" transform="translate(100, 20)"><g transform="translate(0,300)" fill="none" font-size="10" font-family="sans-serif" text-anchor="middle"><path class="domain" stroke="#000" d="M0.5,6V0.5H410.5V6"></path><g class="tick" opacity="1" transform="translate(17.181567177802116,0)"><line stroke="#000" y2="6" x1="0.5" x2="0.5"></line><text fill="#000" y="9" x="0.5" dy="0.71em" style="font-size: 12px;">2009</text></g><g class="tick" opacity="1" transform="translate(58.15911372763782,0)"><line stroke="#000" y2="6" x1="0.5" x2="0.5"></line><text fill="#000" y="9" x="0.5" dy="0.71em" style="font-size: 12px;">2010</text></g><g class="tick" opacity="1" transform="translate(99.13666027747352,0)"><line stroke="#000" y2="6" x1="0.5" x2="0.5"></line><text fill="#000" y="9" x="0.5" dy="0.71em" style="font-size: 12px;">2011</text></g><g class="tick" opacity="1" transform="translate(140.11420682730923,0)"><line stroke="#000" y2="6" x1="0.5" x2="0.5"></line><text fill="#000" y="9" x="0.5" dy="0.71em" style="font-size: 12px;">2012</text></g><g class="tick" opacity="1" transform="translate(181.20402062796643,0)"><line stroke="#000" y2="6" x1="0.5" x2="0.5"></line><text fill="#000" y="9" x="0.5" dy="0.71em" style="font-size: 12px;">2013</text></g><g class="tick" opacity="1" transform="translate(222.18156717780212,0)"><line stroke="#000" y2="6" x1="0.5" x2="0.5"></line><text fill="#000" y="9" x="0.5" dy="0.71em" style="font-size: 12px;">2014</text></g><g class="tick" opacity="1" transform="translate(263.1591137276378,0)"><line stroke="#000" y2="6" x1="0.5" x2="0.5"></line><text fill="#000" y="9" x="0.5" dy="0.71em" style="font-size: 12px;">2015</text></g><g class="tick" opacity="1" transform="translate(304.13666027747354,0)"><line stroke="#000" y2="6" x1="0.5" x2="0.5"></line><text fill="#000" y="9" x="0.5" dy="0.71em" style="font-size: 12px;">2016</text></g><g class="tick" opacity="1" transform="translate(345.2264740781307,0)"><line stroke="#000" y2="6" x1="0.5" x2="0.5"></line><text fill="#000" y="9" x="0.5" dy="0.71em" style="font-size: 12px;">2017</text></g><g class="tick" opacity="1" transform="translate(386.2040206279664,0)"><line stroke="#000" y2="6" x1="0.5" x2="0.5"></line><text fill="#000" y="9" x="0.5" dy="0.71em" style="font-size: 12px;">2018</text></g></g><g class="grid-lines" transform="translate(0,300)" fill="none" font-size="10" font-family="sans-serif" text-anchor="middle"><path class="domain" stroke="#000" d="M0.5,-300V0.5H410.5V-300"></path><g class="tick" opacity="1" transform="translate(17.181567177802116,0)"><line stroke="#000" y2="-300" x1="0.5" x2="0.5" style="stroke: #ccc; fill: none;"></line></g><g class="tick" opacity="1" transform="translate(58.15911372763782,0)"><line stroke="#000" y2="-300" x1="0.5" x2="0.5" style="stroke: #ccc; fill: none;"></line></g><g class="tick" opacity="1" transform="translate(99.13666027747352,0)"><line stroke="#000" y2="-300" x1="0.5" x2="0.5" style="stroke: #ccc; fill: none;"></line></g><g class="tick" opacity="1" transform="translate(140.11420682730923,0)"><line stroke="#000" y2="-300" x1="0.5" x2="0.5" style="stroke: #ccc; fill: none;"></line></g><g class="tick" opacity="1" transform="translate(181.20402062796643,0)"><line stroke="#000" y2="-300" x1="0.5" x2="0.5" style="stroke: #ccc; fill: none;"></line></g><g class="tick" opacity="1" transform="translate(222.18156717780212,0)"><line stroke="#000" y2="-300" x1="0.5" x2="0.5" style="stroke: #ccc; fill: none;"></line></g><g class="tick" opacity="1" transform="translate(263.1591137276378,0)"><line stroke="#000" y2="-300" x1="0.5" x2="0.5" style="stroke: #ccc; fill: none;"></line></g><g class="tick" opacity="1" transform="translate(304.13666027747354,0)"><line stroke="#000" y2="-300" x1="0.5" x2="0.5" style="stroke: #ccc; fill: none;"></line></g><g class="tick" opacity="1" transform="translate(345.2264740781307,0)"><line stroke="#000" y2="-300" x1="0.5" x2="0.5" style="stroke: #ccc; fill: none;"></line></g><g class="tick" opacity="1" transform="translate(386.2040206279664,0)"><line stroke="#000" y2="-300" x1="0.5" x2="0.5" style="stroke: #ccc; fill: none;"></line></g></g><text x="205" y="360" class="axis-label x-axis-label" style="text-anchor: middle; font-weight: bold;">Year</text><g fill="none" font-size="10" font-family="sans-serif" text-anchor="end"><path class="domain" stroke="#000" d="M-6,300.5H0.5V0.5H-6"></path><g class="tick" opacity="1" transform="translate(0,300)"><line stroke="#000" x2="-6" y1="0.5" y2="0.5"></line><text fill="#000" x="-9" y="0.5" dy="0.32em" style="font-size: 12px;">0.00%</text></g><g class="tick" opacity="1" transform="translate(0,272.72727272727275)"><line stroke="#000" x2="-6" y1="0.5" y2="0.5"></line><text fill="#000" x="-9" y="0.5" dy="0.32em" style="font-size: 12px;">1.00%</text></g><g class="tick" opacity="1" transform="translate(0,245.45454545454544)"><line stroke="#000" x2="-6" y1="0.5" y2="0.5"></line><text fill="#000" x="-9" y="0.5" dy="0.32em" style="font-size: 12px;">2.00%</text></g><g class="tick" opacity="1" transform="translate(0,218.1818181818182)"><line stroke="#000" x2="-6" y1="0.5" y2="0.5"></line><text fill="#000" x="-9" y="0.5" dy="0.32em" style="font-size: 12px;">3.00%</text></g><g class="tick" opacity="1" transform="translate(0,190.9090909090909)"><line stroke="#000" x2="-6" y1="0.5" y2="0.5"></line><text fill="#000" x="-9" y="0.5" dy="0.32em" style="font-size: 12px;">4.00%</text></g><g class="tick" opacity="1" transform="translate(0,163.63636363636363)"><line stroke="#000" x2="-6" y1="0.5" y2="0.5"></line><text fill="#000" x="-9" y="0.5" dy="0.32em" style="font-size: 12px;">5.00%</text></g><g class="tick" opacity="1" transform="translate(0,136.36363636363637)"><line stroke="#000" x2="-6" y1="0.5" y2="0.5"></line><text fill="#000" x="-9" y="0.5" dy="0.32em" style="font-size: 12px;">6.00%</text></g><g class="tick" opacity="1" transform="translate(0,109.09090909090907)"><line stroke="#000" x2="-6" y1="0.5" y2="0.5"></line><text fill="#000" x="-9" y="0.5" dy="0.32em" style="font-size: 12px;">7.00%</text></g><g class="tick" opacity="1" transform="translate(0,81.81818181818181)"><line stroke="#000" x2="-6" y1="0.5" y2="0.5"></line><text fill="#000" x="-9" y="0.5" dy="0.32em" style="font-size: 12px;">8.00%</text></g><g class="tick" opacity="1" transform="translate(0,54.54545454545456)"><line stroke="#000" x2="-6" y1="0.5" y2="0.5"></line><text fill="#000" x="-9" y="0.5" dy="0.32em" style="font-size: 12px;">9.00%</text></g><g class="tick" opacity="1" transform="translate(0,27.272727272727252)"><line stroke="#000" x2="-6" y1="0.5" y2="0.5"></line><text fill="#000" x="-9" y="0.5" dy="0.32em" style="font-size: 12px;">10.00%</text></g><g class="tick" opacity="1" transform="translate(0,0)"><line stroke="#000" x2="-6" y1="0.5" y2="0.5"></line><text fill="#000" x="-9" y="0.5" dy="0.32em" style="font-size: 12px;">11.00%</text></g></g><g class="grid-lines" fill="none" font-size="10" font-family="sans-serif" text-anchor="end"><path class="domain" stroke="#000" d="M410,300.5H0.5V0.5H410"></path><g class="tick" opacity="1" transform="translate(0,300)"><line stroke="#000" x2="410" y1="0.5" y2="0.5" style="stroke: #ccc; fill: none;"></line></g><g class="tick" opacity="1" transform="translate(0,272.72727272727275)"><line stroke="#000" x2="410" y1="0.5" y2="0.5" style="stroke: #ccc; fill: none;"></line></g><g class="tick" opacity="1" transform="translate(0,245.45454545454544)"><line stroke="#000" x2="410" y1="0.5" y2="0.5" style="stroke: #ccc; fill: none;"></line></g><g class="tick" opacity="1" transform="translate(0,218.1818181818182)"><line stroke="#000" x2="410" y1="0.5" y2="0.5" style="stroke: #ccc; fill: none;"></line></g><g class="tick" opacity="1" transform="translate(0,190.9090909090909)"><line stroke="#000" x2="410" y1="0.5" y2="0.5" style="stroke: #ccc; fill: none;"></line></g><g class="tick" opacity="1" transform="translate(0,163.63636363636363)"><line stroke="#000" x2="410" y1="0.5" y2="0.5" style="stroke: #ccc; fill: none;"></line></g><g class="tick" opacity="1" transform="translate(0,136.36363636363637)"><line stroke="#000" x2="410" y1="0.5" y2="0.5" style="stroke: #ccc; fill: none;"></line></g><g class="tick" opacity="1" transform="translate(0,109.09090909090907)"><line stroke="#000" x2="410" y1="0.5" y2="0.5" style="stroke: #ccc; fill: none;"></line></g><g class="tick" opacity="1" transform="translate(0,81.81818181818181)"><line stroke="#000" x2="410" y1="0.5" y2="0.5" style="stroke: #ccc; fill: none;"></line></g><g class="tick" opacity="1" transform="translate(0,54.54545454545456)"><line stroke="#000" x2="410" y1="0.5" y2="0.5" style="stroke: #ccc; fill: none;"></line></g><g class="tick" opacity="1" transform="translate(0,27.272727272727252)"><line stroke="#000" x2="410" y1="0.5" y2="0.5" style="stroke: #ccc; fill: none;"></line></g><g class="tick" opacity="1" transform="translate(0,0)"><line stroke="#000" x2="410" y1="0.5" y2="0.5" style="stroke: #ccc; fill: none;"></line></g></g><g class="lines"><path class="line" d="M3.480284775465498,155.8909090909091L6.848302300109529,150.43636363636364L10.333264877692589,144.16363636363636L13.70128240233662,159.16363636363636L17.181567177802116,154.96363636363637L20.661851953267618,169.93636363636364L23.80533497626871,160.25454545454548L27.280941949616647,170.91818181818184L30.648959474260682,172.0090909090909L34.12924424972618,180.3L37.49726177437021,177.98181818181817L40.97754654983571,183.95454545454547L44.45783132530121,180.0272727272727L47.82584884994524,174.05454545454543L51.3108114275283,176.5090909090909L54.67882895217233,181.06363636363633L58.15911372763782,179.23636363636365L61.63939850310332,162.32727272727274L64.78288152610442,173.56363636363636L68.25848849945235,165.10909090909092L71.62650602409639,173.9181818181818L75.10679079956188,162.84545454545454L78.47480832420591,180.3272727272727L81.95509309967142,187.66363636363639L85.43537787513691,178.63636363636363L88.80339539978094,175.33636363636361L92.288357977364,168.92727272727274L95.65637550200803,177.70909090909092L99.13666027747352,181.5272727272727L102.61694505293902,187.71818181818182L105.76042807594013,188.12727272727273L109.23603504928806,182.2909090909091L112.60405257393208,195.35454545454547L116.0843373493976,196.0909090909091L119.45235487404162,196.9090909090909L122.93263964950711,200.37272727272727L126.41292442497263,195.87272727272727L129.78094194961665,184.20000000000002L133.26590452719972,188.72727272727275L136.63392205184374,186.54545454545456L140.11420682730923,194.4L143.59449160277475,189.05454545454543L146.8502418765973,194.4818181818182L150.32584884994523,188.9181818181818L153.69386637458928,200.0181818181818L157.17415115005477,203.86363636363637L160.5421686746988,199.85454545454544L164.0224534501643,201.65454545454543L167.5027382256298,199.8L170.87075575027382,193.6909090909091L174.3557183278569,185.5909090909091L177.7237358525009,186.62727272727273L181.20402062796643,196.63636363636363L184.68430540343192,193.39090909090908L187.82778842643302,188.53636363636366L191.30339539978095,187.6909090909091L194.67141292442497,189.4090909090909L198.15169769989046,194.75454545454545L201.5197152245345,199.90909090909088L205,201.0818181818182L208.4802847754655,193.33636363636361L211.84830230010954,183.0818181818182L215.33326487769259,175.55454545454546L218.70128240233663,185.6727272727273L222.18156717780212,190.39090909090913L225.66185195326761,189.92727272727274L228.8053349762687,187.74545454545455L232.28094194961665,187.55454545454546L235.6489594742607,196.3090909090909L239.12924424972618,205.8272727272727L242.49726177437023,204.46363636363637L245.97754654983572,202.96363636363637L249.4578313253012,199.28181818181818L252.82584884994526,193.41818181818184L256.3108114275283,193.66363636363639L259.67882895217235,194.42727272727274L263.1591137276378,200.23636363636365L266.63939850310334,196.39090909090908L269.7828815261044,195.16363636363636L273.25848849945237,198.46363636363637L276.6265060240964,200.91818181818184L280.1067907995619,206.39999999999998L283.4748083242059,207.38181818181818L286.9550930996714,212.4818181818182L290.4353778751369,210.3272727272727L293.8033953997809,198.02727272727273L297.288357977364,192.57272727272726L300.656375502008,197.39999999999998L304.13666027747354,209.2090909090909L307.61694505293906,206.1818181818182L310.8726953267616,205.8272727272727L314.34830230010954,205.1727272727273L317.71631982475355,212.6727272727273L321.1966046002191,216.21818181818182L324.5646221248631,216.46363636363637L328.0449069003286,225.57272727272726L331.5251916757941,218.89090909090908L334.8932092004381,207.9L338.37817177802117,206.04545454545456L341.74618930266524,212.86363636363637L345.2264740781307,213.6818181818182L348.7067588535962,220.09090909090907L351.8502418765973,216.46363636363637L355.32584884994526,211.17272727272726L358.6938663745893,223.11818181818182L362.17415115005474,228.9818181818182L365.5421686746988,224.48181818181817L369.0224534501643,227.1818181818182L372.5027382256298,228.38181818181818L375.8707557502738,222.84545454545457L379.3557183278569,225.73636363636365L382.7237358525009,222.7090909090909L386.2040206279664,225.1909090909091L389.68430540343195,225.4909090909091L392.82778842643296,225.29999999999998L396.3033953997809,228L399.671412924425,230.86363636363637L403.15169769989046,234.46363636363637L406.5197152245345,239.4818181818182L410,238.1727272727273" data-legend="c++" style="stroke: rgb(31, 119, 180); fill: none;"></path><path class="line" d="M3.480284775465498,297.92727272727274L6.848302300109529,296.1545454545454L10.333264877692589,297.6818181818182L13.70128240233662,297.1090909090909L17.181567177802116,296.7818181818182L20.661851953267618,295.8818181818182L23.80533497626871,296.8363636363636L27.280941949616647,295.96363636363634L30.648959474260682,295.6090909090909L34.12924424972618,295.8272727272727L37.49726177437021,296.7818181818182L40.97754654983571,297.2181818181818L44.45783132530121,295.8545454545455L47.82584884994524,294.73636363636365L51.3108114275283,291.7909090909091L54.67882895217233,292.77272727272725L58.15911372763782,294.40909090909093L61.63939850310332,293.3181818181818L64.78288152610442,293.6454545454545L68.25848849945235,289.90909090909093L71.62650602409639,289.22727272727275L75.10679079956188,292.93636363636364L78.47480832420591,293.26363636363635L81.95509309967142,294.05454545454546L85.43537787513691,292.71818181818185L88.80339539978094,293.1L92.288357977364,293.94545454545454L95.65637550200803,293.04545454545456L99.13666027747352,294.05454545454546L102.61694505293902,290.53636363636366L105.76042807594013,288.5181818181818L109.23603504928806,289.28181818181815L112.60405257393208,291.8181818181818L116.0843373493976,291.54545454545456L119.45235487404162,292.3909090909091L122.93263964950711,293.53636363636366L126.41292442497263,292.9909090909091L129.78094194961665,289.3909090909091L133.26590452719972,289.3363636363636L136.63392205184374,289.90909090909093L140.11420682730923,289.3636363636364L143.59449160277475,287.9727272727273L146.8502418765973,288.43636363636364L150.32584884994523,287.07272727272726L153.69386637458928,289.22727272727275L157.17415115005477,289.28181818181815L160.5421686746988,289.44545454545454L164.0224534501643,288.6545454545454L167.5027382256298,288.76363636363635L170.87075575027382,286.5L174.3557183278569,284.6454545454545L177.7237358525009,286.6363636363636L181.20402062796643,287.6454545454545L184.68430540343192,285.8181818181818L187.82778842643302,284.6454545454545L191.30339539978095,283.5L194.67141292442497,283.55454545454546L198.15169769989046,284.75454545454545L201.5197152245345,284.91818181818184L205,285.6L208.4802847754655,285.46363636363634L211.84830230010954,283.8L215.33326487769259,281.6181818181818L218.70128240233663,282.8181818181818L222.18156717780212,284.1272727272727L225.66185195326761,282.3L228.8053349762687,281.56363636363636L232.28094194961665,280.5L235.6489594742607,280.8818181818182L239.12924424972618,283.0090909090909L242.49726177437023,283.22727272727275L245.97754654983572,284.8363636363636L249.4578313253012,282.6818181818182L252.82584884994526,280.8818181818182L256.3108114275283,280.06363636363636L259.67882895217235,282.6L263.1591137276378,283.58181818181816L266.63939850310334,280.9909090909091L269.7828815261044,280.3636363636364L273.25848849945237,278.3454545454546L276.6265060240964,279.73636363636365L280.1067907995619,282.5181818181818L283.4748083242059,284.4818181818182L286.9550930996714,284.8363636363636L290.4353778751369,285.7909090909091L293.8033953997809,284.72727272727275L297.288357977364,283.06363636363636L300.656375502008,286.3090909090909L304.13666027747354,286.1454545454545L307.61694505293906,284.6181818181818L310.8726953267616,283.41818181818184L314.34830230010954,284.6727272727273L317.71631982475355,283.8272727272727L321.1966046002191,285.4909090909091L324.5646221248631,286.28181818181815L328.0449069003286,286.1454545454545L331.5251916757941,286.6909090909091L334.8932092004381,286.25454545454545L338.37817177802117,288L341.74618930266524,287.8363636363636L345.2264740781307,287.9727272727273L348.7067588535962,286.96363636363634L351.8502418765973,285.6545454545454L355.32584884994526,285.6545454545454L358.6938663745893,285.6L362.17415115005474,287.94545454545454L365.5421686746988,289.06363636363636L369.0224534501643,289.06363636363636L372.5027382256298,290.23636363636365L375.8707557502738,288.3545454545455L379.3557183278569,287.9727272727273L382.7237358525009,290.5090909090909L386.2040206279664,290.42727272727274L389.68430540343195,290.72727272727275L392.82778842643296,290.6727272727273L396.3033953997809,289.8L399.671412924425,291.08181818181816L403.15169769989046,292.09090909090907L406.5197152245345,292.1727272727273L410,293.1" data-legend="matlab" style="stroke: rgb(255, 127, 14); fill: none;"></path><path class="line" d="M3.480284775465498,298.8818181818182L6.848302300109529,300L10.333264877692589,299.8090909090909L13.70128240233662,299.7818181818182L17.181567177802116,298.6636363636364L20.661851953267618,298.6363636363636L23.80533497626871,299.4818181818182L27.280941949616647,298.5L30.648959474260682,299.8090909090909L34.12924424972618,299.53636363636366L37.49726177437021,295.77272727272725L40.97754654983571,296.1272727272727L44.45783132530121,288.6545454545454L47.82584884994524,294.57272727272726L51.3108114275283,293.4L54.67882895217233,294.3L58.15911372763782,294.3545454545455L61.63939850310332,292.6363636363636L64.78288152610442,292.8L68.25848849945235,291.3545454545455L71.62650602409639,292.77272727272725L75.10679079956188,291.3818181818182L78.47480832420591,289.55454545454546L81.95509309967142,287.9727272727273L85.43537787513691,289.58181818181816L88.80339539978094,290.94545454545454L92.288357977364,290.53636363636366L95.65637550200803,291.3L99.13666027747352,291.54545454545456L102.61694505293902,289.58181818181816L105.76042807594013,288.73636363636365L109.23603504928806,286.6363636363636L112.60405257393208,288.54545454545456L116.0843373493976,287.9727272727273L119.45235487404162,287.8909090909091L122.93263964950711,285.3L126.41292442497263,283.8818181818182L129.78094194961665,283.5L133.26590452719972,285L136.63392205184374,284.07272727272726L140.11420682730923,284.04545454545456L143.59449160277475,282.43636363636364L146.8502418765973,282.1909090909091L150.32584884994523,282.4090909090909L153.69386637458928,282.46363636363634L157.17415115005477,280.03636363636366L160.5421686746988,278.8090909090909L164.0224534501643,279.27272727272725L167.5027382256298,278.45454545454544L170.87075575027382,277.25454545454545L174.3557183278569,275.53636363636366L177.7237358525009,275.78181818181815L181.20402062796643,274.25454545454545L184.68430540343192,270.8727272727273L187.82778842643302,271.44545454545454L191.30339539978095,271.1727272727273L194.67141292442497,271.22727272727275L198.15169769989046,269.8909090909091L201.5197152245345,270.05454545454546L205,269.6454545454545L208.4802847754655,272.1272727272727L211.84830230010954,269.3727272727273L215.33326487769259,266.7L218.70128240233663,269.04545454545456L222.18156717780212,266.53636363636366L225.66185195326761,262.6636363636364L228.8053349762687,263.5909090909091L232.28094194961665,262.2818181818182L235.6489594742607,260.6181818181818L239.12924424972618,260.5090909090909L242.49726177437023,260.0181818181818L245.97754654983572,259.3090909090909L249.4578313253012,261.6272727272727L252.82584884994526,256.8L256.3108114275283,256.3090909090909L259.67882895217235,259.2L263.1591137276378,256.2818181818182L266.63939850310334,252.51818181818183L269.7828815261044,249.51818181818183L273.25848849945237,252.84545454545454L276.6265060240964,250.36363636363637L280.1067907995619,250.8272727272727L283.4748083242059,245.15454545454543L286.9550930996714,248.12727272727273L290.4353778751369,249.54545454545456L293.8033953997809,246.73636363636365L297.288357977364,246.46363636363634L300.656375502008,250.33636363636364L304.13666027747354,247.3090909090909L307.61694505293906,248.5090909090909L310.8726953267616,245.86363636363637L314.34830230010954,243.27272727272728L317.71631982475355,245.97272727272727L321.1966046002191,243.62727272727273L324.5646221248631,242.9181818181818L328.0449069003286,243.84545454545454L331.5251916757941,248.2090909090909L334.8932092004381,241.8272727272727L338.37817177802117,245.23636363636365L341.74618930266524,247.63636363636363L345.2264740781307,246.6818181818182L348.7067588535962,243.4090909090909L351.8502418765973,238.44545454545454L355.32584884994526,235.88181818181818L358.6938663745893,237.62727272727273L362.17415115005474,232.74545454545455L365.5421686746988,231.4909090909091L369.0224534501643,230.5909090909091L372.5027382256298,232.03636363636363L375.8707557502738,230.5909090909091L379.3557183278569,229.77272727272728L382.7237358525009,234.4090909090909L386.2040206279664,232.58181818181816L389.68430540343195,224.48181818181817L392.82778842643296,224.1818181818182L396.3033953997809,224.8090909090909L399.671412924425,228.08181818181816L403.15169769989046,225.6L406.5197152245345,228.62727272727273L410,235.03636363636363" data-legend="r" style="stroke: rgb(44, 160, 44); fill: none;"></path><path class="line" d="M3.480284775465498,196.93636363636364L6.848302300109529,205.74545454545455L10.333264877692589,204.21818181818182L13.70128240233662,201.89999999999998L17.181567177802116,192.95454545454544L20.661851953267618,203.04545454545456L23.80533497626871,199.03636363636366L27.280941949616647,203.1L30.648959474260682,195.10909090909092L34.12924424972618,200.3181818181818L37.49726177437021,203.1818181818182L40.97754654983571,205.74545454545455L44.45783132530121,204.38181818181818L47.82584884994524,194.07272727272726L51.3108114275283,190.39090909090913L54.67882895217233,186L58.15911372763782,182.5090909090909L61.63939850310332,186.98181818181817L64.78288152610442,192.43636363636364L68.25848849945235,201.76363636363635L71.62650602409639,195.08181818181816L75.10679079956188,192.73636363636365L78.47480832420591,184.06363636363636L81.95509309967142,193.8272727272727L85.43537787513691,200.4L88.80339539978094,186.7090909090909L92.288357977364,198.35454545454547L95.65637550200803,203.2909090909091L99.13666027747352,201.73636363636365L102.61694505293902,201.92727272727274L105.76042807594013,199.71818181818185L109.23603504928806,205.5818181818182L112.60405257393208,205.22727272727272L116.0843373493976,205.63636363636363L119.45235487404162,201.5727272727273L122.93263964950711,203.53636363636366L126.41292442497263,207.2181818181818L129.78094194961665,203.5909090909091L133.26590452719972,204.05454545454546L136.63392205184374,205.88181818181818L140.11420682730923,202.28181818181815L143.59449160277475,202.44545454545454L146.8502418765973,198.60000000000002L150.32584884994523,197.3181818181818L153.69386637458928,197.8090909090909L157.17415115005477,191.5090909090909L160.5421686746988,191.64545454545453L164.0224534501643,188.42727272727274L167.5027382256298,192.8181818181818L170.87075575027382,189.76363636363638L174.3557183278569,183.70909090909095L177.7237358525009,185.42727272727274L181.20402062796643,187.71818181818182L184.68430540343192,182.10000000000002L187.82778842643302,181.9363636363636L191.30339539978095,175.63636363636363L194.67141292442497,173.89090909090908L198.15169769989046,171.08181818181816L201.5197152245345,169.11818181818182L205,174.54545454545456L208.4802847754655,170.5909090909091L211.84830230010954,161.4L215.33326487769259,155.04545454545453L218.70128240233663,162.3818181818182L222.18156717780212,159.9818181818182L225.66185195326761,158.39999999999998L228.8053349762687,152.29090909090905L232.28094194961665,151.0909090909091L235.6489594742607,158.75454545454545L239.12924424972618,152.80909090909094L242.49726177437023,149.26363636363635L245.97754654983572,150.21818181818182L249.4578313253012,157.88181818181818L252.82584884994526,150.87272727272727L256.3108114275283,145.28181818181818L259.67882895217235,143.34545454545454L263.1591137276378,142.90909090909093L266.63939850310334,136.82727272727269L269.7828815261044,135.21818181818182L273.25848849945237,137.37272727272727L276.6265060240964,137.15454545454548L280.1067907995619,130.55454545454546L283.4748083242059,129.95454545454544L286.9550930996714,133.06363636363633L290.4353778751369,133.60909090909092L293.8033953997809,119.26363636363635L297.288357977364,113.75454545454545L300.656375502008,117.9818181818182L304.13666027747354,116.20909090909092L307.61694505293906,110.5090909090909L310.8726953267616,111.81818181818181L314.34830230010954,112.60909090909092L317.71631982475355,113.34545454545454L321.1966046002191,111.16363636363639L324.5646221248631,104.04545454545453L328.0449069003286,108.21818181818185L331.5251916757941,105.92727272727274L334.8932092004381,92.01818181818183L338.37817177802117,81.57272727272726L341.74618930266524,83.29090909090908L345.2264740781307,82.17272727272729L348.7067588535962,72.4909090909091L351.8502418765973,70.6363636363636L355.32584884994526,64.33636363636364L358.6938663745893,66.40909090909085L362.17415115005474,57.70909090909089L365.5421686746988,46.52727272727279L369.0224534501643,50.26363636363638L372.5027382256298,50.099999999999966L375.8707557502738,42.709090909090946L379.3557183278569,39.92727272727274L382.7237358525009,33.790909090909054L386.2040206279664,38.45454545454544L389.68430540343195,24.68181818181813L392.82778842643296,31.609090909090924L396.3033953997809,28.390909090909076L399.671412924425,31.090909090909122L403.15169769989046,20.100000000000023L406.5197152245345,12.081818181818221L410,13.445454545454538" data-legend="python" style="stroke: rgb(214, 39, 40); fill: none;"></path><path class="line" d="M3.480284775465498,299.6454545454545L6.848302300109529,299.8363636363636L10.333264877692589,299.8090909090909L13.70128240233662,300L17.181567177802116,300L20.661851953267618,299.7L23.80533497626871,299.8909090909091L27.280941949616647,299.8909090909091L30.648959474260682,299.59090909090907L34.12924424972618,299.72727272727275L37.49726177437021,299.42727272727274L40.97754654983571,299.5090909090909L44.45783132530121,299.04545454545456L47.82584884994524,298.6090909090909L51.3108114275283,299.3727272727273L54.67882895217233,299.5090909090909L58.15911372763782,299.8363636363636L61.63939850310332,299.2909090909091L64.78288152610442,299.4818181818182L68.25848849945235,299.3181818181818L71.62650602409639,299.4L75.10679079956188,299.3454545454546L78.47480832420591,299.53636363636366L81.95509309967142,299.1272727272727L85.43537787513691,299.26363636363635L88.80339539978094,298.4727272727273L92.288357977364,297.24545454545455L95.65637550200803,298.5L99.13666027747352,297.6818181818182L102.61694505293902,297.1636363636364L105.76042807594013,297.05454545454546L109.23603504928806,296.59090909090907L112.60405257393208,296.6727272727273L116.0843373493976,296.1545454545454L119.45235487404162,296.72727272727275L122.93263964950711,297.43636363636364L126.41292442497263,296.59090909090907L129.78094194961665,296.6454545454545L133.26590452719972,296.91818181818184L136.63392205184374,295.5272727272727L140.11420682730923,296.7L143.59449160277475,299.2909090909091L146.8502418765973,299.4L150.32584884994523,299.26363636363635L153.69386637458928,299.3454545454546L157.17415115005477,299.3454545454546L160.5421686746988,299.59090909090907L164.0224534501643,299.53636363636366L167.5027382256298,299.2909090909091L170.87075575027382,299.1818181818182L174.3557183278569,299.3454545454546L177.7237358525009,299.2909090909091L181.20402062796643,299.3727272727273L184.68430540343192,299.3454545454546L187.82778842643302,299.45454545454544L191.30339539978095,299.2909090909091L194.67141292442497,299.42727272727274L198.15169769989046,299.2909090909091L201.5197152245345,299.6727272727273L205,299.5090909090909L208.4802847754655,299.5090909090909L211.84830230010954,299.59090909090907L215.33326487769259,299.5090909090909L218.70128240233663,299.6727272727273L222.18156717780212,299.59090909090907L225.66185195326761,299.6727272727273L228.8053349762687,299.56363636363636L232.28094194961665,299.6727272727273L235.6489594742607,299.72727272727275L239.12924424972618,299.6454545454545L242.49726177437023,299.45454545454544L245.97754654983572,299.7L249.4578313253012,299.59090909090907L252.82584884994526,299.59090909090907L256.3108114275283,299.6181818181818L259.67882895217235,299.4818181818182L263.1591137276378,299.6454545454545L266.63939850310334,299.6727272727273L269.7828815261044,299.5090909090909L273.25848849945237,299.59090909090907L276.6265060240964,299.53636363636366L280.1067907995619,299.6727272727273L283.4748083242059,299.75454545454545L286.9550930996714,299.7818181818182L290.4353778751369,299.7818181818182L293.8033953997809,299.8909090909091L297.288357977364,299.91818181818184L300.656375502008,299.6727272727273L304.13666027747354,299.72727272727275L307.61694505293906,299.7818181818182L310.8726953267616,299.6727272727273L314.34830230010954,299.6727272727273L317.71631982475355,299.6727272727273L321.1966046002191,299.8090909090909L324.5646221248631,299.7L328.0449069003286,299.8090909090909L331.5251916757941,299.6727272727273L334.8932092004381,299.8090909090909L338.37817177802117,299.7818181818182L341.74618930266524,299.75454545454545L345.2264740781307,299.6727272727273L348.7067588535962,299.8363636363636L351.8502418765973,299.8090909090909L355.32584884994526,299.72727272727275L358.6938663745893,299.7818181818182L362.17415115005474,299.7L365.5421686746988,299.8090909090909L369.0224534501643,299.7818181818182L372.5027382256298,299.7818181818182L375.8707557502738,299.8090909090909L379.3557183278569,299.56363636363636L382.7237358525009,299.75454545454545L386.2040206279664,299.8909090909091L389.68430540343195,299.8090909090909L392.82778842643296,299.75454545454545L396.3033953997809,299.7818181818182L399.671412924425,299.6454545454545L403.15169769989046,299.7818181818182L406.5197152245345,299.8363636363636L410,299.75454545454545" data-legend="wolfram-mathematica" style="stroke: rgb(148, 103, 189); fill: none;"></path></g></g><g transform="translate(20, 150)"><text transform="rotate(-90)" x="-50" y="0" dy="1em" class="axis-label y-axis-label" style="text-anchor: middle; font-weight: bold;">% of Stack Overflow questions that month</text></g><g class="legend" transform="translate(530, 30)" style="font-size: 12px;"><text class="legend-title" style="font-weight: bold;">Tag</text><g class="legend-items" transform="translate(0,20)"><text y="0em" x="1em">python</text><text y="1em" x="1em">c++</text><text y="2em" x="1em">r</text><text y="3em" x="1em">matlab</text><text y="4em" x="1em">wolfram-mathematica</text><circle cy="-0.25em" cx="0" r="0.4em" style="fill: rgb(214, 39, 40);"></circle><circle cy="0.75em" cx="0" r="0.4em" style="fill: rgb(31, 119, 180);"></circle><circle cy="1.75em" cx="0" r="0.4em" style="fill: rgb(44, 160, 44);"></circle><circle cy="2.75em" cx="0" r="0.4em" style="fill: rgb(255, 127, 14);"></circle><circle cy="3.75em" cx="0" r="0.4em" style="fill: rgb(148, 103, 189);"></circle></g><rect class="legend-box"></rect></g></svg>
            